<svg xmlns="http://www.w3.org/2000/svg" viewBox="0 0 270 117.827"><g fill="#FFF"><path d="M77.636 89.182c-4.86 5.94-10.8 12.96-18.36 17.82-7.56 4.86-16.202 8.642-26.463 8.642-9.18 0-17.28-4.86-21.6-9.18C4.733 100.524.95 91.34.41 82.7-2.83 56.24 13.373 22.218 38.215 7.097c5.94-3.24 11.88-5.4 17.82-5.4 11.882 0 21.062 8.64 22.142 18.9 1.08 9.182-2.7 17.282-12.96 22.142-5.4 2.7-7.56 2.7-8.642 1.08-.54-1.08 0-2.16 1.08-3.24 9.72-8.1 9.72-14.583 8.64-23.763-.54-5.94-4.86-9.72-9.18-9.72C38.215 7.097 11.21 49.22 14.99 80c1.62 11.882 8.642 25.923 23.762 25.923 4.86 0 10.26-1.62 15.12-3.78 10.262-5.4 15.122-9.18 21.602-17.82.54-1.08 1.62-2.16 2.7-3.78.54-1.08 1.62-1.62 2.16-1.62 1.08 0 1.62.54 2.16 2.16 0 1.08 0 2.16-1.08 3.78-2.158 1.62-2.698 3.24-3.778 4.32z"/><path d="M106.258 104.303c-4.86 0-7.56-2.7-8.1-6.48-3.24 4.32-7.02 6.48-11.88 6.48-7.02 0-14.042-5.94-15.122-14.04-1.62-14.042 10.8-32.943 29.162-32.943 8.1 0 14.58 3.24 15.12 9.18 1.08 8.1-5.94 9.182-8.1 9.182-2.16 0-5.94-.54-5.94-2.7-.54-2.16 4.86-1.08 4.32-5.94-.54-3.24-3.78-4.32-7.02-4.32-11.34 0-17.82 15.66-16.2 25.382.54 4.32 2.7 8.64 7.02 8.64 3.24 0 8.1-4.86 9.72-11.88 1.08-4.86 5.4-8.1 9.182-8.1 1.62 0 2.7.54 3.24 2.7v2.16c-.54 2.16-2.16 8.64-1.62 10.26 0 1.08.54 2.7 2.7 2.7s13.5-6.48 19.98-15.12c.54-.54 1.62-1.08 2.7-1.08s1.62.54 2.16 1.62c0 1.08-.54 2.7-1.62 4.32-8.64 11.34-24.302 19.98-29.702 19.98zm156.07-4.86c.54 4.32 2.7 7.56 4.86 9.18.54.54 1.08 1.62 1.08 1.62 0 1.08-.54 2.16-2.16 2.16-.54 0-1.08 0-1.62-.54-8.1-3.24-11.34-8.64-12.42-14.04-3.24 3.78-7.02 5.94-11.343 5.94-7.02 0-14.04-6.48-15.12-14.58-1.62-14.042 11.34-32.943 29.16-32.943 7.56 0 14.582 3.24 15.122 9.18 1.08 8.1-5.94 9.722-8.1 9.722-2.16 0-5.94-.54-5.94-2.7s4.86-1.08 4.32-5.94c-.54-3.24-3.78-4.32-7.02-4.32-10.8 0-17.82 14.04-16.2 25.382.54 4.32 2.7 9.18 7.02 9.18 3.24 0 8.1-4.86 10.26-11.88 1.08-4.32 5.4-8.1 9.18-8.1 1.62 0 2.7.54 3.24 2.7 0 1.08 0 3.24-2.16 10.26-2.7 4.858-2.7 7.56-2.16 9.72z"/><path d="M164.04 96.203c2.7 0 10.802-3.24 17.282-11.88.54-.54 1.62-1.08 2.7-1.08s2.16.54 2.16 1.62-.54 2.16-1.62 4.32c-7.56 10.26-19.98 15.66-25.382 15.66-5.4 0-8.64-3.24-9.18-8.64v-5.94c1.62-11.882 5.94-18.902 5.94-21.062 0-.54-.54-1.08-1.08-1.08-3.78 0-16.202 12.963-18.362 21.603l-1.62 7.02c-1.08 4.86-5.94 8.1-9.18 8.1-1.62 0-2.7-.54-3.24-2.7v-2.16s6.48-32.402 6.48-34.022c.54-3.78 2.16-7.56 9.72-7.56 1.62 0 2.7.54 3.24 2.7v2.16l-2.16 9.72c7.02-9.18 17.28-15.66 23.76-15.66 2.7 0 4.86 1.62 4.86 4.32 0 1.62 0 4.32-1.08 7.02-2.16 5.94-4.86 15.12-6.48 23.22.003 2.163.543 4.324 3.243 4.324z"/><path d="M216.965 82.162h-2.7c-7.02 10.26-14.58 17.28-19.98 20.52-2.16 1.08-4.32 1.62-5.94 1.62-1.08 0-2.7-.54-3.24-1.62-2.7-4.32-3.78-12.96-3.78-21.6 0-6.48.54-11.88 1.62-15.66 1.08-4.32 6.48-8.1 9.72-8.1 1.62 0 3.24 1.08 3.24 2.7 0 .54 0 1.62-.54 2.16-2.16 7.02-3.78 13.5-3.78 19.98 0 3.78.54 9.18 1.62 12.42 0 .54.54 1.08 1.08 1.08 1.08 0 8.64-7.02 14.04-16.2-4.86-3.24-7.56-8.64-7.56-15.12 0-11.342 7.02-17.282 13.502-17.282 5.4 0 9.72 3.78 9.72 11.34 0 4.86-1.62 10.262-4.32 15.122h1.62c4.32 0 7.02-1.62 9.182-3.78 1.08-1.62 2.16-2.16 3.24-2.16.54 0 1.08.54 1.08 1.62 0 .54 0 1.08-.54 2.16-4.326 7.02-11.346 10.8-17.286 10.8zm-9.72-23.222c0 4.32 2.16 9.18 4.86 11.88 1.08-3.24 1.62-5.94 1.62-9.18 0-5.4-2.16-8.1-3.78-8.1-1.62 0-2.7 2.7-2.7 5.4z"/></g></svg>